<?xml version="1.0" encoding="UTF-8" standalone="no"?>
<!-- Generator: Adobe Illustrator 19.0.0, SVG Export Plug-In . SVG Version: 6.00 Build 0)  -->

<svg
   version="1.1"
   id="Layer_1"
   x="0px"
   y="0px"
   viewBox="0 0 512 512"
   style="enable-background:new 0 0 512 512;"
   xml:space="preserve"
   xmlns="http://www.w3.org/2000/svg"
   xmlns:svg="http://www.w3.org/2000/svg"><defs
   id="defs41" />
<g
   id="g6"
   transform="matrix(0.88052569,0,0,0.8948626,21.257562,23.029025)">
	<g
   id="g4">
		<path
   id="path2"
   d="M 255.99942,0 C 114.84156,0 0,114.8412 0,255.99906 0,397.15692 114.84156,512.0003 255.99942,512.0003 c 22.94661,0 45.1778,-3.08258 66.35329,-8.77186 -11.89007,-9.92901 -22.05918,-21.69244 -30.08457,-34.84953 -7.46206,7.12762 -15.23794,12.20069 -23.13958,14.93769 v -96.03429 h 3.88173 c 0.76027,-9.0323 2.43728,-17.79736 4.91761,-26.25665 h -8.79934 v -91.89828 h 85.5934 c -0.0366,1.47193 -0.11157,2.90979 -0.15971,4.37175 18.73777,-8.65925 39.58018,-13.64997 61.56878,-13.64997 17.96685,0 35.15687,3.37248 51.09031,9.28041 h 18.10663 c -0.14747,2.592 -0.4115,5.11813 -0.63882,7.66528 8.79717,4.64477 16.98906,10.2107 24.56807,16.46333 1.78247,-12.16888 2.74383,-24.60336 2.74383,-37.25912 C 512.00105,114.8412 397.15727,0 255.99942,0 Z M 242.87249,28.371587 V 124.71799 H 175.2593 c 3.89799,-11.81498 8.1754,-24.25022 13.23339,-35.216209 15.35299,-33.287966 34.68682,-54.590201 54.3798,-61.130194 z m 26.25385,0.279372 h 0.002 c 19.69198,6.874993 38.81506,28.048855 53.94505,60.850822 5.05799,10.965989 9.76793,23.401229 13.66593,35.216209 h -67.6132 z m -74.85541,5.779519 c -10.87899,10.941989 -20.81761,25.327439 -29.4036,43.944421 -6.55799,14.216985 -12.2283,30.589111 -16.9643,46.343091 H 67.209496 C 97.372465,81.395038 142.10198,49.000463 194.27093,34.430478 Z m 124.3531,0.113495 c 51.78694,14.688985 96.17434,48.164063 126.16531,90.174017 h -80.69132 c -4.737,-15.75398 -10.40631,-31.99515 -16.9643,-46.212135 -8.52399,-18.480982 -18.0907,-33.048893 -28.50969,-43.961882 z M 51.429682,150.97464 h 89.971998 c -6.11099,28.88198 -9.67171,60.38913 -10.40971,91.8961 H 26.606531 c 1.790999,-32.81997 10.543165,-63.01412 24.823151,-91.8961 z m 116.831398,0 h 74.61141 v 91.89828 h -85.61336 c 0.776,-31.50797 4.54096,-63.0163 11.00195,-91.89828 z m 100.86748,0 h 74.61141 c 6.45999,28.88198 10.22695,60.38913 11.00195,91.8961 h -85.61336 z m 101.47081,0 h 89.96978 c 14.27999,28.88098 23.03215,59.07731 24.82315,91.89828 H 381.00686 c -0.738,-31.50797 -4.2955,-63.0163 -10.40749,-91.89828 z M 26.673075,269.12738 H 131.02303 c 0.8,32.81997 4.41847,64.32931 10.60046,91.89828 H 51.97978 C 37.533794,333.45669 28.614073,303.26135 26.673075,269.12738 Z m 130.606015,0.002 h 85.59118 v 91.89609 h -74.52934 c -6.23599,-26.25598 -10.21384,-57.76313 -11.06184,-91.89609 z M 67.932608,387.28231 h 80.265442 c 4.67599,17.06698 10.24607,31.77169 16.66706,45.69268 8.413,18.23798 18.20559,32.64784 28.93558,43.81783 C 142.25074,462.27683 97.994578,430.60526 67.932608,387.28231 Z m 107.475302,0 h 67.46458 v 96.31803 c -24.94397,-8.62299 -51.0066,-42.49209 -67.46458,-96.31803 z" />
	</g>
</g>
<g
   id="g8"
   transform="matrix(0.88052569,0,0,0.8948626,21.257562,23.029025)">
</g>
<g
   id="g10"
   transform="matrix(0.88052569,0,0,0.8948626,21.257562,23.029025)">
</g>
<g
   id="g12"
   transform="matrix(0.88052569,0,0,0.8948626,21.257562,23.029025)">
</g>
<g
   id="g14"
   transform="matrix(0.88052569,0,0,0.8948626,21.257562,23.029025)">
</g>
<g
   id="g16"
   transform="matrix(0.88052569,0,0,0.8948626,21.257562,23.029025)">
</g>
<g
   id="g18"
   transform="matrix(0.88052569,0,0,0.8948626,21.257562,23.029025)">
</g>
<g
   id="g20"
   transform="matrix(0.88052569,0,0,0.8948626,21.257562,23.029025)">
</g>
<g
   id="g22"
   transform="matrix(0.88052569,0,0,0.8948626,21.257562,23.029025)">
</g>
<g
   id="g24"
   transform="matrix(0.88052569,0,0,0.8948626,21.257562,23.029025)">
</g>
<g
   id="g26"
   transform="matrix(0.88052569,0,0,0.8948626,21.257562,23.029025)">
</g>
<g
   id="g28"
   transform="matrix(0.88052569,0,0,0.8948626,21.257562,23.029025)">
</g>
<g
   id="g30"
   transform="matrix(0.88052569,0,0,0.8948626,21.257562,23.029025)">
</g>
<g
   id="g32"
   transform="matrix(0.88052569,0,0,0.8948626,21.257562,23.029025)">
</g>
<g
   id="g34"
   transform="matrix(0.88052569,0,0,0.8948626,21.257562,23.029025)">
</g>
<g
   id="g36"
   transform="matrix(0.88052569,0,0,0.8948626,21.257562,23.029025)">
</g>
<g
   id="path982"
   transform="translate(21.257562,23.029025)"><path
     style="color:#000000;fill:#0b0c1e;fill-opacity:0;stroke-width:25;-inkscape-stroke:none"
     d="M 467.95697,356.62607 A 101.54361,99.096771 0 0 1 366.41336,455.72284 101.54361,99.096771 0 0 1 264.86975,356.62607 101.54361,99.096771 0 0 1 366.41336,257.5293 101.54361,99.096771 0 0 1 467.95697,356.62607 Z"
     id="path1154" /><path
     style="color:#000000;fill:#000000;fill-opacity:1;stroke:none;stroke-opacity:1;-inkscape-stroke:none"
     d="m 366.41406,245.0293 c -62.67364,0 -114.04492,49.94578 -114.04492,111.59765 0,61.65188 51.37128,111.59571 114.04492,111.59571 62.67364,0 114.04297,-49.94383 114.04297,-111.59571 0,-61.65187 -51.36933,-111.59765 -114.04297,-111.59765 z m 0,25 c 49.48822,0 89.04297,38.79037 89.04297,86.59765 0,47.80729 -39.55475,86.59571 -89.04297,86.59571 -49.48822,0 -89.04492,-38.78842 -89.04492,-86.59571 0,-47.80728 39.5567,-86.59765 89.04492,-86.59765 z"
     id="path1156" /></g><g
   id="ellipse1047"
   transform="translate(21.257562,23.029025)"><path
     style="color:#000000;fill:#0b0c1e;fill-opacity:0;stroke-width:50;-inkscape-stroke:none"
     d="M 467.95697,356.62607 A 101.54361,99.096771 0 0 1 366.41336,455.72284 101.54361,99.096771 0 0 1 264.86975,356.62607 101.54361,99.096771 0 0 1 366.41336,257.5293 101.54361,99.096771 0 0 1 467.95697,356.62607 Z"
     id="path1098" /></g><path
   id="rect2730"
   style="stroke-width:18.6324"
   d="M 452.39598,300.22059 471.27214,317.86866 323.63197,454.4435 308.48219,433.24599 Z" /></svg>
