<?xml version="1.0" encoding="UTF-8" standalone="no"?>
<!-- Created with Inkscape (http://www.inkscape.org/) -->

<svg
   width="1440"
   height="1440"
   viewBox="0 0 1440 1440"
   version="1.1"
   id="svg29649"
   xmlns="http://www.w3.org/2000/svg"
   xmlns:svg="http://www.w3.org/2000/svg">
  <defs
     id="defs29646">
    <clipPath
       clipPathUnits="userSpaceOnUse"
       id="clipPath26782">
      <path
         d="M 0,759.588 H 1098 V 0 H 0 Z"
         id="path26780" />
    </clipPath>
    <clipPath
       clipPathUnits="userSpaceOnUse"
       id="clipPath27212">
      <path
         d="M 80.3887,189.747 H 191.083 v -0.308 H 80.3887 Z"
         id="path27210" />
    </clipPath>
    <clipPath
       clipPathUnits="userSpaceOnUse"
       id="clipPath27258">
      <path
         d="m 703.462,206.817 h 177.326 v -0.493 H 703.462 Z"
         id="path27256" />
    </clipPath>
    <clipPath
       clipPathUnits="userSpaceOnUse"
       id="clipPath26582">
      <path
         d="M 927.836,353.473 V 158.685 h 66.592 15.629 v 227.857 l -15.629,5.21 z"
         id="path26580" />
    </clipPath>
    <clipPath
       clipPathUnits="userSpaceOnUse"
       id="clipPath26590">
      <path
         d="m 921.161,375.383 h 97.099 v -39.358 h -97.099 z"
         id="path26588" />
    </clipPath>
    <clipPath
       clipPathUnits="userSpaceOnUse"
       id="clipPath26606">
      <path
         d="m 921.161,356.47 h 97.099 v -39.357 h -97.099 z"
         id="path26604" />
    </clipPath>
    <clipPath
       clipPathUnits="userSpaceOnUse"
       id="clipPath26622">
      <path
         d="m 921.161,337.556 h 97.099 v -39.357 h -97.099 z"
         id="path26620" />
    </clipPath>
    <clipPath
       clipPathUnits="userSpaceOnUse"
       id="clipPath26638">
      <path
         d="m 921.161,318.642 h 97.099 v -39.356 h -97.099 z"
         id="path26636" />
    </clipPath>
    <clipPath
       clipPathUnits="userSpaceOnUse"
       id="clipPath26654">
      <path
         d="m 921.161,299.73 h 97.099 v -39.359 h -97.099 z"
         id="path26652" />
    </clipPath>
    <clipPath
       clipPathUnits="userSpaceOnUse"
       id="clipPath26670">
      <path
         d="m 921.161,280.815 h 97.099 v -39.356 h -97.099 z"
         id="path26668" />
    </clipPath>
    <clipPath
       clipPathUnits="userSpaceOnUse"
       id="clipPath26686">
      <path
         d="m 921.161,261.902 h 97.099 v -39.357 h -97.099 z"
         id="path26684" />
    </clipPath>
    <clipPath
       clipPathUnits="userSpaceOnUse"
       id="clipPath26702">
      <path
         d="m 921.161,242.989 h 97.099 v -39.356 h -97.099 z"
         id="path26700" />
    </clipPath>
    <clipPath
       clipPathUnits="userSpaceOnUse"
       id="clipPath26718">
      <path
         d="m 921.161,224.074 h 97.099 v -39.355 h -97.099 z"
         id="path26716" />
    </clipPath>
    <clipPath
       clipPathUnits="userSpaceOnUse"
       id="clipPath26734">
      <path
         d="m 921.161,205.162 h 97.099 v -39.357 h -97.099 z"
         id="path26732" />
    </clipPath>
    <clipPath
       clipPathUnits="userSpaceOnUse"
       id="clipPath26750">
      <path
         d="m 921.161,186.248 h 97.099 v -39.356 h -97.099 z"
         id="path26748" />
    </clipPath>
    <clipPath
       clipPathUnits="userSpaceOnUse"
       id="clipPath26766">
      <path
         d="m 921.161,167.334 h 97.099 v -39.355 h -97.099 z"
         id="path26764" />
    </clipPath>
    <clipPath
       clipPathUnits="userSpaceOnUse"
       id="clipPath26278">
      <path
         d="M 0,759.588 H 1098 V 0 H 0 Z"
         id="path26276" />
    </clipPath>
  </defs>
  <g
     id="layer1">
    <g
       id="g26272"
       transform="matrix(3.4097528,0,0,-3.339046,-2004.0447,1969.7603)">
      <g
         id="g26274"
         clip-path="url(#clipPath26278)">
        <g
           id="g26288"
           transform="translate(744.335,541.6318)">
          <path
             d="M 0,0 V -382.83 H -54.74 V -38.622 Z"
             style="fill:#ffffff;fill-opacity:1;fill-rule:nonzero;stroke:none"
             id="path26290" />
        </g>
        <g
           id="g26292"
           transform="translate(744.335,541.6318)">
          <path
             d="M 0,0 68.229,-30.171 V -382.83 H 0 Z"
             style="fill:#939adb;fill-opacity:1;fill-rule:nonzero;stroke:none"
             id="path26294" />
        </g>
        <g
           id="g26296"
           transform="translate(774.2432,494.333)">
          <path
             d="M 0,0 8.415,-3.722 V -20.021 L 0,-16.445 Z"
             style="fill:#45367f;fill-opacity:1;fill-rule:nonzero;stroke:none"
             id="path26298" />
        </g>
        <g
           id="g26300"
           transform="translate(719.502,500.0049)">
          <path
             d="m 0,0 -8.415,-3.721 v -16.3 L 0,-16.444 Z"
             style="fill:#45367f;fill-opacity:1;fill-rule:nonzero;stroke:none"
             id="path26302" />
        </g>
        <g
           id="g26304"
           transform="translate(739.4346,438.854)">
          <path
             d="M 0,0 -8.415,-3.722 V -20.021 L 0,-16.444 Z"
             style="fill:#45367f;fill-opacity:1;fill-rule:nonzero;stroke:none"
             id="path26306" />
        </g>
        <g
           id="g26308"
           transform="translate(699.9297,432.7202)">
          <path
             d="M 0,0 -8.415,-3.722 V -20.021 L 0,-16.446 Z"
             style="fill:#45367f;fill-opacity:1;fill-rule:nonzero;stroke:none"
             id="path26310" />
        </g>
        <g
           id="g26312"
           transform="translate(774.2432,460.6641)">
          <path
             d="m 0,0 8.415,-3.721 v -16.3 L 0,-16.445 Z"
             style="fill:#45367f;fill-opacity:1;fill-rule:nonzero;stroke:none"
             id="path26314" />
        </g>
        <g
           id="g26316"
           transform="translate(751.5166,402.3037)">
          <path
             d="M 0,0 8.415,-3.723 V -20.021 L 0,-16.446 Z"
             style="fill:#45367f;fill-opacity:1;fill-rule:nonzero;stroke:none"
             id="path26318" />
        </g>
        <g
           id="g26320"
           transform="translate(797.7979,469.3628)">
          <path
             d="m 0,0 8.415,-3.722 v -16.3 L 0,-16.445 Z"
             style="fill:#45367f;fill-opacity:1;fill-rule:nonzero;stroke:none"
             id="path26322" />
        </g>
        <g
           id="g26324"
           transform="translate(765.5381,158.8018)">
          <path
             d="M 0,0 H 2.718 V 372.252 L 0,373.454 Z"
             style="fill:#231f20;fill-opacity:1;fill-rule:nonzero;stroke:none"
             id="path26326" />
        </g>
        <g
           id="g26328"
           transform="translate(790.5459,158.8018)">
          <path
             d="M 0,0 H 1.631 V 361.674 L 0,362.395 Z"
             style="fill:#231f20;fill-opacity:1;fill-rule:nonzero;stroke:none"
             id="path26330" />
        </g>
        <g
           id="g26332"
           transform="translate(723.4883,526.9238)">
          <path
             d="M 0,0 V -368.122 H 2.717 V 1.917 Z"
             style="fill:#939adb;fill-opacity:1;fill-rule:nonzero;stroke:none"
             id="path26334" />
        </g>
        <g
           id="g26336"
           transform="translate(703.6455,512.9243)">
          <path
             d="M 0,0 V -354.123 H 1.632 V 1.151 Z"
             style="fill:#939adb;fill-opacity:1;fill-rule:nonzero;stroke:none"
             id="path26338" />
        </g>
        <g
           id="g26340"
           transform="translate(751.916,162.2295)">
          <path
             d="m 0,0 v 144.476 l -67.609,-13.83 V 0 Z"
             style="fill:#255599;fill-opacity:1;fill-rule:nonzero;stroke:none"
             id="path26342" />
        </g>
        <g
           id="g26344"
           transform="translate(777.5283,162.2295)">
          <path
             d="m 0,0 v 135.256 l -25.612,9.22 V 0 Z"
             style="fill:#053855;fill-opacity:1;fill-rule:nonzero;stroke:none"
             id="path26346" />
        </g>
        <path
           d="m 708.477,255.999 h -12.024 v 18.355 h 12.024 z"
           style="fill:#4b9ed7;fill-opacity:1;fill-rule:nonzero;stroke:none"
           id="path26348" />
        <path
           d="m 734.055,255.999 h -12.023 v 18.355 h 12.023 z"
           style="fill:#4b9ed7;fill-opacity:1;fill-rule:nonzero;stroke:none"
           id="path26350" />
        <path
           d="m 708.477,219.097 h -12.024 v 18.354 h 12.024 z"
           style="fill:#4b9ed7;fill-opacity:1;fill-rule:nonzero;stroke:none"
           id="path26352" />
        <path
           d="m 734.055,219.097 h -12.023 v 18.354 h 12.023 z"
           style="fill:#4b9ed7;fill-opacity:1;fill-rule:nonzero;stroke:none"
           id="path26354" />
        <path
           d="m 708.477,182.194 h -12.024 v 18.353 h 12.024 z"
           style="fill:#4b9ed7;fill-opacity:1;fill-rule:nonzero;stroke:none"
           id="path26356" />
        <path
           d="m 734.055,182.194 h -12.023 v 18.353 h 12.023 z"
           style="fill:#4b9ed7;fill-opacity:1;fill-rule:nonzero;stroke:none"
           id="path26358" />
        <path
           d="m 708.477,163.647 h -12.024 v -1.418 h 12.024 z"
           style="fill:#4b9ed7;fill-opacity:1;fill-rule:nonzero;stroke:none"
           id="path26360" />
        <path
           d="m 734.055,163.647 h -12.023 v -1.418 h 12.023 z"
           style="fill:#4b9ed7;fill-opacity:1;fill-rule:nonzero;stroke:none"
           id="path26362" />
        <g
           id="g26364"
           transform="translate(768.6572,162.2295)">
          <path
             d="m 0,0 v 109.197 l -9.373,2.928 V 0 Z"
             style="fill:#255599;fill-opacity:1;fill-rule:nonzero;stroke:none"
             id="path26366" />
        </g>
        <g
           id="g26466"
           transform="translate(619.6289,163.8838)">
          <path
             d="m 0,0 v 335.849 l -33.212,11.959 V 0 Z"
             style="fill:#053855;fill-opacity:1;fill-rule:nonzero;stroke:none"
             id="path26468" />
        </g>
        <g
           id="g26498"
           transform="translate(608.124,218.1172)">
          <path
             d="M 0,0 H -12.154 V 251.617 L 0,247.82 Z"
             style="fill:#255599;fill-opacity:1;fill-rule:nonzero;stroke:none"
             id="path26500" />
        </g>
        <g
           id="g26502"
           transform="translate(644.5869,162.2295)">
          <path
             d="M 0,0 V 198.444 L -72.928,174.936 V 0 Z"
             style="fill:#fdffff;fill-opacity:1;fill-rule:nonzero;stroke:none"
             id="path26504" />
        </g>
        <g
           id="g26506"
           transform="translate(693.2061,162.2295)">
          <path
             d="m 0,0 v 183.377 l -48.619,15.067 V 0 Z"
             style="fill:#343b93;fill-opacity:1;fill-rule:nonzero;stroke:none"
             id="path26508" />
        </g>
        <path
           d="M 673.286,315.643 H 661.808 V 162.23 h 11.478 z"
           style="fill:#fefefe;fill-opacity:1;fill-rule:nonzero;stroke:none"
           id="path26510" />
        <path
           d="m 595.107,321.679 h -7.83 V 162.23 h 7.83 z"
           style="fill:#4b9ed7;fill-opacity:1;fill-rule:nonzero;stroke:none"
           id="path26512" />
        <path
           d="m 612.9,331.975 h -7.83 V 162.23 h 7.83 z"
           style="fill:#4b9ed7;fill-opacity:1;fill-rule:nonzero;stroke:none"
           id="path26514" />
        <path
           d="m 630.693,342.273 h -7.83 V 162.229 h 7.83 z"
           style="fill:#4b9ed7;fill-opacity:1;fill-rule:nonzero;stroke:none"
           id="path26516" />
        <g
           id="g26534"
           transform="translate(937.8652,205.6211)">
          <path
             d="M 0,0 H -53.365 V 334.666 L 0,286.125 Z"
             style="fill:#4b9ed7;fill-opacity:1;fill-rule:nonzero;stroke:none"
             id="path26536" />
        </g>
        <path
           d="m 914.801,477.424 h -14.925 v 11.76 h 14.925 z"
           style="fill:#212474;fill-opacity:1;fill-rule:nonzero;stroke:none"
           id="path26538" />
        <path
           d="m 914.801,452.239 h -14.925 v 11.76 h 14.925 z"
           style="fill:#212474;fill-opacity:1;fill-rule:nonzero;stroke:none"
           id="path26540" />
        <path
           d="m 914.801,427.054 h -14.925 v 11.759 h 14.925 z"
           style="fill:#212474;fill-opacity:1;fill-rule:nonzero;stroke:none"
           id="path26542" />
        <path
           d="m 914.801,401.869 h -14.925 v 11.758 h 14.925 z"
           style="fill:#212474;fill-opacity:1;fill-rule:nonzero;stroke:none"
           id="path26544" />
        <path
           d="m 914.801,376.682 h -14.925 v 11.761 h 14.925 z"
           style="fill:#212474;fill-opacity:1;fill-rule:nonzero;stroke:none"
           id="path26546" />
        <path
           d="M 884.5,384.744 H 838.373 V 565.612 H 884.5 Z"
           style="fill:#4b9ed7;fill-opacity:1;fill-rule:nonzero;stroke:none"
           id="path26548" />
        <g
           id="g26550"
           transform="translate(884.5,384.7437)">
          <path
             d="M 0,0 H 2.682 V 153.104 L 0,155.543 Z"
             style="fill:#212474;fill-opacity:1;fill-rule:nonzero;stroke:none"
             id="path26552" />
        </g>
        <path
           d="m 884.5,556.115 h -21.575 v 33.012 H 884.5 Z"
           style="fill:#4b9ed7;fill-opacity:1;fill-rule:nonzero;stroke:none"
           id="path26554" />
        <path
           d="M 877.266,548.88 H 847.87 v 3.165 h 29.396 z"
           style="fill:#fdffff;fill-opacity:1;fill-rule:nonzero;stroke:none"
           id="path26556" />
        <path
           d="M 877.266,535.086 H 847.87 v 3.166 h 29.396 z"
           style="fill:#fdffff;fill-opacity:1;fill-rule:nonzero;stroke:none"
           id="path26558" />
        <path
           d="M 877.266,521.293 H 847.87 v 3.166 h 29.396 z"
           style="fill:#fdffff;fill-opacity:1;fill-rule:nonzero;stroke:none"
           id="path26560" />
        <path
           d="M 877.266,507.5 H 847.87 v 3.165 h 29.396 z"
           style="fill:#fdffff;fill-opacity:1;fill-rule:nonzero;stroke:none"
           id="path26562" />
        <path
           d="M 877.266,493.707 H 847.87 v 3.166 h 29.396 z"
           style="fill:#fdffff;fill-opacity:1;fill-rule:nonzero;stroke:none"
           id="path26564" />
        <path
           d="M 877.266,479.914 H 847.87 v 3.165 h 29.396 z"
           style="fill:#fdffff;fill-opacity:1;fill-rule:nonzero;stroke:none"
           id="path26566" />
        <g
           id="g26568"
           transform="translate(994.4277,391.752)">
          <path
             d="M 0,0 15.629,-5.21 V -233.066 H 0 Z"
             style="fill:#171b3d;fill-opacity:1;fill-rule:nonzero;stroke:none"
             id="path26570" />
        </g>
        <g
           id="g26572"
           transform="translate(994.4277,391.752)">
          <path
             d="M 0,0 -66.592,-38.278 V -233.066 H 0 Z"
             style="fill:#939adb;fill-opacity:1;fill-rule:nonzero;stroke:none"
             id="path26574" />
        </g>
      </g>
    </g>
    <g
       id="g26576"
       transform="matrix(3.4097528,0,0,-3.339046,-2004.0447,1969.7603)">
      <g
         id="g26578"
         clip-path="url(#clipPath26582)">
        <g
           id="g26584">
          <g
             id="g26586" />
          <g
             id="g26598">
            <g
               clip-path="url(#clipPath26590)"
               id="g26596">
              <g
                 transform="translate(921.501,336.0254)"
                 id="g26594">
                <path
                   d="M 0,0 -0.34,0.643 72.837,39.357 H 96.755 V 38.632 H 73.017 Z"
                   style="fill:#a5a5a5;fill-opacity:1;fill-rule:nonzero;stroke:none"
                   id="path26592" />
              </g>
            </g>
          </g>
        </g>
        <g
           id="g26600">
          <g
             id="g26602" />
          <g
             id="g26614">
            <g
               clip-path="url(#clipPath26606)"
               id="g26612">
              <g
                 transform="translate(921.501,317.1133)"
                 id="g26610">
                <path
                   d="M 0,0 -0.34,0.64 72.837,39.356 H 96.755 V 38.63 H 73.017 Z"
                   style="fill:#a5a5a5;fill-opacity:1;fill-rule:nonzero;stroke:none"
                   id="path26608" />
              </g>
            </g>
          </g>
        </g>
        <g
           id="g26616">
          <g
             id="g26618" />
          <g
             id="g26630">
            <g
               clip-path="url(#clipPath26622)"
               id="g26628">
              <g
                 transform="translate(921.501,298.1992)"
                 id="g26626">
                <path
                   d="M 0,0 -0.34,0.642 72.837,39.356 H 96.755 V 38.632 H 73.017 Z"
                   style="fill:#a5a5a5;fill-opacity:1;fill-rule:nonzero;stroke:none"
                   id="path26624" />
              </g>
            </g>
          </g>
        </g>
        <g
           id="g26632">
          <g
             id="g26634" />
          <g
             id="g26646">
            <g
               clip-path="url(#clipPath26638)"
               id="g26644">
              <g
                 transform="translate(921.501,279.2861)"
                 id="g26642">
                <path
                   d="M 0,0 -0.34,0.642 72.837,39.355 H 96.755 V 38.632 H 73.017 Z"
                   style="fill:#a5a5a5;fill-opacity:1;fill-rule:nonzero;stroke:none"
                   id="path26640" />
              </g>
            </g>
          </g>
        </g>
        <g
           id="g26648">
          <g
             id="g26650" />
          <g
             id="g26662">
            <g
               clip-path="url(#clipPath26654)"
               id="g26660">
              <g
                 transform="translate(921.501,260.3711)"
                 id="g26658">
                <path
                   d="M 0,0 -0.34,0.642 72.837,39.359 H 96.755 V 38.632 H 73.017 Z"
                   style="fill:#a5a5a5;fill-opacity:1;fill-rule:nonzero;stroke:none"
                   id="path26656" />
              </g>
            </g>
          </g>
        </g>
        <g
           id="g26664">
          <g
             id="g26666" />
          <g
             id="g26678">
            <g
               clip-path="url(#clipPath26670)"
               id="g26676">
              <g
                 transform="translate(921.501,241.459)"
                 id="g26674">
                <path
                   d="M 0,0 -0.34,0.642 72.837,39.356 H 96.755 V 38.632 H 73.017 Z"
                   style="fill:#a5a5a5;fill-opacity:1;fill-rule:nonzero;stroke:none"
                   id="path26672" />
              </g>
            </g>
          </g>
        </g>
        <g
           id="g26680">
          <g
             id="g26682" />
          <g
             id="g26694">
            <g
               clip-path="url(#clipPath26686)"
               id="g26692">
              <g
                 transform="translate(921.501,222.5449)"
                 id="g26690">
                <path
                   d="M 0,0 -0.34,0.642 72.837,39.357 H 96.755 V 38.632 H 73.017 Z"
                   style="fill:#a5a5a5;fill-opacity:1;fill-rule:nonzero;stroke:none"
                   id="path26688" />
              </g>
            </g>
          </g>
        </g>
        <g
           id="g26696">
          <g
             id="g26698" />
          <g
             id="g26710">
            <g
               clip-path="url(#clipPath26702)"
               id="g26708">
              <g
                 transform="translate(921.501,203.6328)"
                 id="g26706">
                <path
                   d="M 0,0 -0.34,0.64 72.837,39.356 H 96.755 V 38.629 H 73.017 Z"
                   style="fill:#a5a5a5;fill-opacity:1;fill-rule:nonzero;stroke:none"
                   id="path26704" />
              </g>
            </g>
          </g>
        </g>
        <g
           id="g26712">
          <g
             id="g26714" />
          <g
             id="g26726">
            <g
               clip-path="url(#clipPath26718)"
               id="g26724">
              <g
                 transform="translate(921.501,184.7187)"
                 id="g26722">
                <path
                   d="M 0,0 -0.34,0.641 72.837,39.355 H 96.755 V 38.631 H 73.017 Z"
                   style="fill:#a5a5a5;fill-opacity:1;fill-rule:nonzero;stroke:none"
                   id="path26720" />
              </g>
            </g>
          </g>
        </g>
        <g
           id="g26728">
          <g
             id="g26730" />
          <g
             id="g26742">
            <g
               clip-path="url(#clipPath26734)"
               id="g26740">
              <g
                 transform="translate(921.501,165.8047)"
                 id="g26738">
                <path
                   d="M 0,0 -0.34,0.641 72.837,39.357 H 96.755 V 38.631 H 73.017 Z"
                   style="fill:#a5a5a5;fill-opacity:1;fill-rule:nonzero;stroke:none"
                   id="path26736" />
              </g>
            </g>
          </g>
        </g>
        <g
           id="g26744">
          <g
             id="g26746" />
          <g
             id="g26758">
            <g
               clip-path="url(#clipPath26750)"
               id="g26756">
              <g
                 transform="translate(921.501,146.8916)"
                 id="g26754">
                <path
                   d="M 0,0 -0.34,0.641 72.837,39.356 H 96.755 V 38.632 H 73.017 Z"
                   style="fill:#a5a5a5;fill-opacity:1;fill-rule:nonzero;stroke:none"
                   id="path26752" />
              </g>
            </g>
          </g>
        </g>
        <g
           id="g26760">
          <g
             id="g26762" />
          <g
             id="g26774">
            <g
               clip-path="url(#clipPath26766)"
               id="g26772">
              <g
                 transform="translate(921.501,127.9785)"
                 id="g26770">
                <path
                   d="M 0,0 -0.34,0.642 72.837,39.355 H 96.755 V 38.63 H 73.017 Z"
                   style="fill:#a5a5a5;fill-opacity:1;fill-rule:nonzero;stroke:none"
                   id="path26768" />
              </g>
            </g>
          </g>
        </g>
      </g>
    </g>
    <g
       id="g26776"
       transform="matrix(3.4097528,0,0,-3.339046,-2004.0447,1969.7603)">
      <g
         id="g26778"
         clip-path="url(#clipPath26782)">
        <path
           d="m 855.589,158.884 h -58.904 v 340.915 h 58.904 z"
           style="fill:#fdffff;fill-opacity:1;fill-rule:nonzero;stroke:none"
           id="path26836" />
        <g
           id="g26838"
           transform="translate(855.5889,499.7988)">
          <path
             d="M 0,0 50.263,-51.043 V -340.915 H 0 Z"
             style="fill:#053855;fill-opacity:1;fill-rule:nonzero;stroke:none"
             id="path26840" />
        </g>
        <path
           d="m 905.852,441.589 h -50.263 v 2.357 h 50.263 z"
           style="fill:#4b9ed7;fill-opacity:1;fill-rule:nonzero;stroke:none"
           id="path26842" />
        <path
           d="m 905.852,420.317 h -50.263 v 2.354 h 50.263 z"
           style="fill:#4b9ed7;fill-opacity:1;fill-rule:nonzero;stroke:none"
           id="path26844" />
        <path
           d="m 905.852,399.042 h -50.263 v 2.355 h 50.263 z"
           style="fill:#4b9ed7;fill-opacity:1;fill-rule:nonzero;stroke:none"
           id="path26846" />
        <path
           d="m 905.852,377.769 h -50.263 v 2.357 h 50.263 z"
           style="fill:#4b9ed7;fill-opacity:1;fill-rule:nonzero;stroke:none"
           id="path26848" />
        <path
           d="m 905.852,356.497 h -50.263 v 2.352 h 50.263 z"
           style="fill:#4b9ed7;fill-opacity:1;fill-rule:nonzero;stroke:none"
           id="path26850" />
        <path
           d="m 905.852,335.22 h -50.263 v 2.357 h 50.263 z"
           style="fill:#4b9ed7;fill-opacity:1;fill-rule:nonzero;stroke:none"
           id="path26852" />
        <path
           d="m 905.852,313.945 h -50.263 v 2.354 h 50.263 z"
           style="fill:#4b9ed7;fill-opacity:1;fill-rule:nonzero;stroke:none"
           id="path26854" />
        <path
           d="m 905.852,292.674 h -50.263 v 2.354 h 50.263 z"
           style="fill:#4b9ed7;fill-opacity:1;fill-rule:nonzero;stroke:none"
           id="path26856" />
        <path
           d="m 905.852,271.399 h -50.263 v 2.354 h 50.263 z"
           style="fill:#4b9ed7;fill-opacity:1;fill-rule:nonzero;stroke:none"
           id="path26858" />
        <path
           d="m 905.852,250.125 h -50.263 v 2.357 h 50.263 z"
           style="fill:#4b9ed7;fill-opacity:1;fill-rule:nonzero;stroke:none"
           id="path26860" />
        <path
           d="m 905.852,228.854 h -50.263 v 2.354 h 50.263 z"
           style="fill:#4b9ed7;fill-opacity:1;fill-rule:nonzero;stroke:none"
           id="path26862" />
        <path
           d="m 905.852,207.576 h -50.263 v 2.357 h 50.263 z"
           style="fill:#4b9ed7;fill-opacity:1;fill-rule:nonzero;stroke:none"
           id="path26864" />
        <path
           d="m 905.852,186.305 h -50.263 v 2.354 h 50.263 z"
           style="fill:#4b9ed7;fill-opacity:1;fill-rule:nonzero;stroke:none"
           id="path26866" />
        <path
           d="m 814.226,159.449 h -5.966 v 327.388 h 5.966 z"
           style="fill:#4b9ed7;fill-opacity:1;fill-rule:nonzero;stroke:none"
           id="path26868" />
        <path
           d="M 834.866,159.449 H 828.9 v 327.388 h 5.966 z"
           style="fill:#4b9ed7;fill-opacity:1;fill-rule:nonzero;stroke:none"
           id="path26870" />
        <path
           d="M 866.152,159.448 H 824.96 v 126.068 h 41.192 z"
           style="fill:#ffffff;fill-opacity:1;fill-rule:nonzero;stroke:none"
           id="path26960" />
        <path
           d="m 942.147,159.448 h -75.995 v 126.068 h 75.995 z"
           style="fill:#053855;fill-opacity:1;fill-rule:nonzero;stroke:none"
           id="path26962" />
        <path
           d="m 860.471,285.517 h -16.335 v 17.046 h 16.335 z"
           style="fill:#7fdee5;fill-opacity:1;fill-rule:nonzero;stroke:none"
           id="path26964" />
        <path
           d="m 925.459,285.517 h -64.988 v 17.046 h 64.988 z"
           style="fill:#053855;fill-opacity:1;fill-rule:nonzero;stroke:none"
           id="path26966" />
        <path
           d="m 856.654,269.626 h -24.771 v 5.592 h 24.771 z"
           style="fill:#837a78;fill-opacity:1;fill-rule:nonzero;stroke:none"
           id="path26968" />
        <path
           d="m 856.654,256.575 h -24.771 v 5.593 h 24.771 z"
           style="fill:#837a78;fill-opacity:1;fill-rule:nonzero;stroke:none"
           id="path26970" />
        <path
           d="m 856.654,243.525 h -24.771 v 5.592 h 24.771 z"
           style="fill:#837a78;fill-opacity:1;fill-rule:nonzero;stroke:none"
           id="path26972" />
        <path
           d="m 856.654,230.475 h -24.771 v 5.592 h 24.771 z"
           style="fill:#837a78;fill-opacity:1;fill-rule:nonzero;stroke:none"
           id="path26974" />
        <path
           d="m 856.654,217.424 h -24.771 v 5.592 h 24.771 z"
           style="fill:#837a78;fill-opacity:1;fill-rule:nonzero;stroke:none"
           id="path26976" />
        <path
           d="m 856.654,204.373 h -24.771 v 5.595 h 24.771 z"
           style="fill:#837a78;fill-opacity:1;fill-rule:nonzero;stroke:none"
           id="path26978" />
        <path
           d="m 856.654,191.323 h -24.771 v 5.592 h 24.771 z"
           style="fill:#837a78;fill-opacity:1;fill-rule:nonzero;stroke:none"
           id="path26980" />
        <path
           d="m 856.654,178.27 h -24.771 v 5.595 h 24.771 z"
           style="fill:#837a78;fill-opacity:1;fill-rule:nonzero;stroke:none"
           id="path26982" />
        <path
           d="m 856.654,165.22 h -24.771 v 5.594 h 24.771 z"
           style="fill:#837a78;fill-opacity:1;fill-rule:nonzero;stroke:none"
           id="path26984" />
        <path
           d="m 929.542,269.626 h -53.18 v 5.592 h 53.18 z"
           style="fill:#3f3980;fill-opacity:1;fill-rule:nonzero;stroke:none"
           id="path26986" />
        <path
           d="m 929.542,256.575 h -53.18 v 5.593 h 53.18 z"
           style="fill:#3f3980;fill-opacity:1;fill-rule:nonzero;stroke:none"
           id="path26988" />
        <path
           d="m 929.542,243.525 h -53.18 v 5.592 h 53.18 z"
           style="fill:#3f3980;fill-opacity:1;fill-rule:nonzero;stroke:none"
           id="path26990" />
        <path
           d="m 929.542,230.475 h -53.18 v 5.592 h 53.18 z"
           style="fill:#3f3980;fill-opacity:1;fill-rule:nonzero;stroke:none"
           id="path26992" />
        <path
           d="m 929.542,217.424 h -53.18 v 5.592 h 53.18 z"
           style="fill:#3f3980;fill-opacity:1;fill-rule:nonzero;stroke:none"
           id="path26994" />
        <path
           d="m 929.542,204.373 h -53.18 v 5.595 h 53.18 z"
           style="fill:#3f3980;fill-opacity:1;fill-rule:nonzero;stroke:none"
           id="path26996" />
        <path
           d="m 929.542,191.323 h -53.18 v 5.592 h 53.18 z"
           style="fill:#3f3980;fill-opacity:1;fill-rule:nonzero;stroke:none"
           id="path26998" />
        <path
           d="m 929.542,178.27 h -53.18 v 5.595 h 53.18 z"
           style="fill:#3f3980;fill-opacity:1;fill-rule:nonzero;stroke:none"
           id="path27000" />
        <path
           d="m 929.542,165.22 h -53.18 v 5.594 h 53.18 z"
           style="fill:#3f3980;fill-opacity:1;fill-rule:nonzero;stroke:none"
           id="path27002" />
        <g
           id="g27060"
           transform="translate(920.1826,193.9326)">
          <path
             d="m 0,0 c 0,0 -34.395,-3.576 -33.844,31.374 0.551,34.945 1.637,40.454 -0.006,52.561 -1.646,12.106 11.285,30.544 33.85,30.82 C 22.567,115.029 36.054,92.188 31.649,72.098 27.248,52.014 32.747,35.776 34.125,31.374 35.501,26.972 37.697,-1.923 0,0"
             style="fill:#10295e;fill-opacity:1;fill-rule:nonzero;stroke:none"
             id="path27062" />
        </g>
        <g
           id="g27064"
           transform="translate(954.3076,225.3066)">
          <path
             d="m 0,0 c -1.378,4.402 -6.877,20.64 -2.476,40.724 2.796,12.758 -1.642,26.611 -11.026,34.963 -5.583,0.861 -12.04,-0.374 -16.405,-2.642 -6.634,-3.439 -12.036,-10.564 -12.53,-17.939 -0.738,-8.348 1.721,-16.211 -3.195,-23.582 -3.932,-5.651 -6.632,-13.756 -5.158,-20.884 0.739,-3.927 3.934,-6.872 5.649,-10.314 1.476,-3.688 3.198,-6.388 3.934,-10.318 1.187,-7.14 0.348,-15.174 4.306,-21.486 1.721,0 2.776,0.104 2.776,0.104 C 3.572,-33.297 1.376,-4.402 0,0"
             style="fill:#1e4284;fill-opacity:1;fill-rule:nonzero;stroke:none"
             id="path27066" />
        </g>
        <g
           id="g27068"
           transform="translate(919.0918,276.7314)">
          <path
             d="m 0,0 v -119.395 c 0,-1.459 2.26,-1.459 2.26,0 V 0 C 2.26,1.459 0,1.459 0,0"
             style="fill:#f7941e;fill-opacity:1;fill-rule:nonzero;stroke:none"
             id="path27070" />
        </g>
        <g
           id="g27072"
           transform="translate(921.0215,237.499)">
          <path
             d="m 0,0 c 5.078,5.074 10.153,10.154 15.229,15.23 1.034,1.031 -0.567,2.63 -1.601,1.6 C 8.554,11.756 3.479,6.674 -1.601,1.599 -2.632,0.566 -1.033,-1.032 0,0"
             style="fill:#f7941e;fill-opacity:1;fill-rule:nonzero;stroke:none"
             id="path27074" />
        </g>
        <g
           id="g27076"
           transform="translate(902.9639,235.1562)">
          <path
             d="m 0,0 c 5.484,-5.486 10.975,-10.971 16.457,-16.459 1.032,-1.033 2.631,0.566 1.601,1.599 C 12.573,-9.374 7.086,-3.887 1.602,1.602 0.568,2.632 -1.031,1.033 0,0"
             style="fill:#f7941e;fill-opacity:1;fill-rule:nonzero;stroke:none"
             id="path27078" />
        </g>
        <g
           id="g27080"
           transform="translate(1036.0215,223.0674)">
          <path
             d="m 0,0 c 0,-20.644 -16.734,-37.376 -37.378,-37.376 -20.642,0 -37.374,16.732 -37.374,37.376 0,20.64 16.732,37.374 37.374,37.374 C -16.734,37.374 0,20.64 0,0"
             style="fill:#10295e;fill-opacity:1;fill-rule:nonzero;stroke:none"
             id="path27082" />
        </g>
        <g
           id="g27084"
           transform="translate(1013.7285,257.2627)">
          <path
             d="m 0,0 c -13.128,-5.796 -22.291,-18.923 -22.291,-34.195 0,-15.273 9.163,-28.4 22.291,-34.198 13.124,5.798 22.293,18.925 22.293,34.198 C 22.293,-18.923 13.124,-5.796 0,0"
             style="fill:#1b3f7f;fill-opacity:1;fill-rule:nonzero;stroke:none"
             id="path27086" />
        </g>
        <g
           id="g27088"
           transform="translate(997.5127,239.3896)">
          <path
             d="M 0,0.03177259 V -79.640373 c 0,-1.417636 2.261,-1.417636 2.261,0 V 0.03177259 c 0,1.41763651 -2.261,1.41763651 -2.261,0"
             style="fill:#f7941e;fill-opacity:1;fill-rule:nonzero;stroke:none;stroke-width:0.985385"
             id="path27090" />
        </g>
        <g
           id="g27092"
           transform="translate(999.4414,212.1758)">
          <path
             d="m 0,0 c 3.49,3.489 6.979,6.979 10.469,10.47 1.033,1.033 -0.567,2.634 -1.6,1.599 C 5.38,8.581 1.894,5.089 -1.599,1.599 -2.631,0.568 -1.031,-1.03 0,0"
             style="fill:#f7941e;fill-opacity:1;fill-rule:nonzero;stroke:none"
             id="path27094" />
        </g>
        <g
           id="g27096"
           transform="translate(986.5322,210.5664)">
          <path
             d="m 0,0 c 3.77,-3.768 7.542,-7.539 11.311,-11.31 1.031,-1.032 2.629,0.568 1.598,1.597 C 9.141,-5.94 5.368,-2.171 1.6,1.604 0.566,2.634 -1.034,1.032 0,0"
             style="fill:#f7941e;fill-opacity:1;fill-rule:nonzero;stroke:none"
             id="path27098" />
        </g>
        <g
           id="g27100"
           transform="translate(954.9072,200.8096)">
          <path
             d="M 0,0 -20.175,-20.396 H 20.176 L 0,0 -20.175,-20.396 h 40.351 z"
             style="fill:#053855;fill-opacity:1;fill-rule:nonzero;stroke:none"
             id="path27102" />
        </g>
        <g
           id="g27104"
           transform="translate(954.9072,219.833)">
          <path
             d="M 0,0 -17.847,-18.04 H 17.85 L 0,0 -17.847,-18.04 H 17.85 Z"
             style="fill:#053855;fill-opacity:1;fill-rule:nonzero;stroke:none"
             id="path27106" />
        </g>
        <g
           id="g27108"
           transform="translate(954.9072,233.7607)">
          <path
             d="M 0,0 -12.932,-13.074 H 12.936 L 0,0 -12.932,-13.074 h 25.868 z"
             style="fill:#053855;fill-opacity:1;fill-rule:nonzero;stroke:none"
             id="path27110" />
        </g>
        <g
           id="g27112"
           transform="translate(953.7793,227.7451)">
          <path
             d="m 0,0 v -70.408 c 0,-1.46 2.259,-1.46 2.259,0 V 0 C 2.259,1.456 0,1.456 0,0"
             style="fill:#053855;fill-opacity:1;fill-rule:nonzero;stroke:none"
             id="path27114" />
        </g>
        <g
           id="g27164"
           transform="matrix(0.47549744,0,0,1,1035.8868,148.35)">
          <path
             d="M -54.321628,10.334996 H -942.48205 v 8.130987 L -54.322269,18.9835"
             style="fill:#1d2c55;fill-opacity:1;fill-rule:nonzero;stroke:none"
             id="path27166" />
        </g>
        <path
           d="m 836.508,163.951 h -133.04 v 39.74 h 133.04 z"
           style="fill:#ffffff;fill-opacity:1;fill-rule:nonzero;stroke:none"
           id="path27222" />
        <path
           d="m 880.938,163.951 h -44.431 v 39.74 h 44.431 z"
           style="fill:#939adb;fill-opacity:1;fill-rule:nonzero;stroke:none"
           id="path27224" />
        <path
           d="m 868.104,163.951 h -18.76 v 24.559 h 18.76 z"
           style="fill:#ffffff;fill-opacity:1;fill-rule:nonzero;stroke:none"
           id="path27226" />
        <g
           id="g27228"
           transform="translate(703.4678,203.6914)">
          <path
             d="M 0,0 C 0,0 -1.563,14.562 12.263,16.207 H 147.687 V 0 Z"
             style="fill:#45367f;fill-opacity:1;fill-rule:nonzero;stroke:none"
             id="path27230" />
        </g>
        <g
           id="g27232"
           transform="translate(836.5078,203.6914)">
          <path
             d="m 0,0 c 0,0 -1.151,16.207 14.647,16.207 15.795,0.003 19.747,0 19.747,0 0,0 10.037,-3.124 10.037,-16.207 z"
             style="fill:#171b3d;fill-opacity:1;fill-rule:nonzero;stroke:none"
             id="path27234" />
        </g>
        <path
           d="m 720.253,163.951 h -0.864 v 39.74 h 0.864 z"
           style="fill:#171b3d;fill-opacity:1;fill-rule:nonzero;stroke:none"
           id="path27236" />
        <path
           d="m 735.68,163.951 h -0.862 v 39.74 h 0.862 z"
           style="fill:#171b3d;fill-opacity:1;fill-rule:nonzero;stroke:none"
           id="path27238" />
        <path
           d="m 751.104,163.951 h -0.862 v 39.74 h 0.862 z"
           style="fill:#171b3d;fill-opacity:1;fill-rule:nonzero;stroke:none"
           id="path27240" />
        <path
           d="m 766.531,163.951 h -0.863 v 39.74 h 0.863 z"
           style="fill:#171b3d;fill-opacity:1;fill-rule:nonzero;stroke:none"
           id="path27242" />
        <path
           d="m 781.958,163.951 h -0.86 v 39.74 h 0.86 z"
           style="fill:#171b3d;fill-opacity:1;fill-rule:nonzero;stroke:none"
           id="path27244" />
        <path
           d="m 797.388,163.951 h -0.862 v 39.74 h 0.862 z"
           style="fill:#171b3d;fill-opacity:1;fill-rule:nonzero;stroke:none"
           id="path27246" />
        <path
           d="m 812.814,163.951 h -0.864 v 39.74 h 0.864 z"
           style="fill:#171b3d;fill-opacity:1;fill-rule:nonzero;stroke:none"
           id="path27248" />
        <path
           d="m 828.24,163.951 h -0.863 v 39.74 h 0.863 z"
           style="fill:#171b3d;fill-opacity:1;fill-rule:nonzero;stroke:none"
           id="path27250" />
        <g
           id="g27252">
          <g
             id="g27254" />
          <g
             id="g27266">
            <g
               clip-path="url(#clipPath27258)"
               id="g27264">
              <g
                 transform="translate(703.4619,206.3242)"
                 id="g27262">
                <path
                   d="m 0,0 h 177.326 c -0.019,0.167 -0.039,0.333 -0.06,0.493 H 0.042 C 0.025,0.324 0.013,0.16 0,0"
                   style="fill:#cc9292;fill-opacity:1;fill-rule:nonzero;stroke:none"
                   id="path27260" />
              </g>
            </g>
          </g>
        </g>
        <g
           id="g27268"
           transform="translate(638.1123,183.624)">
          <path
             d="M 0,0 40.315,109.214 82.419,1.032 0,0 40.315,109.214 82.419,1.032 Z"
             style="fill:#ffffff;fill-opacity:1;fill-rule:nonzero;stroke:none"
             id="path27270" />
        </g>
        <g
           id="g27272"
           transform="translate(680.0625,266.0381)">
          <path
             d="m 0,0 v -101.17 -7.517 c 0,-0.957 -1.481,-0.957 -1.481,0 V -7.52 0 C -1.481,0.956 0,0.956 0,0"
             style="fill:#662d91;fill-opacity:1;fill-rule:nonzero;stroke:none"
             id="path27274" />
        </g>
        <g
           id="g27276"
           transform="translate(691.4033,243.4297)">
          <path
             d="m 0,0 c -3.655,-3.657 -7.312,-7.314 -10.967,-10.971 -0.676,-0.675 -1.724,0.372 -1.049,1.047 3.658,3.659 7.312,7.314 10.969,10.969 C -0.371,1.724 0.68,0.674 0,0"
             style="fill:#662d91;fill-opacity:1;fill-rule:nonzero;stroke:none"
             id="path27278" />
        </g>
        <g
           id="g27280"
           transform="translate(678.6475,225.6426)">
          <path
             d="m 0,0 c -4.793,4.79 -9.587,9.585 -14.379,14.378 -0.676,0.674 0.372,1.724 1.05,1.045 C -8.539,10.633 -3.744,5.84 1.048,1.045 1.724,0.37 0.676,-0.679 0,0"
             style="fill:#662d91;fill-opacity:1;fill-rule:nonzero;stroke:none"
             id="path27282" />
        </g>
        <g
           id="g27284"
           transform="translate(698.2227,222.5283)">
          <path
             d="m 0,0 c -5.929,-5.931 -11.858,-11.859 -17.786,-17.789 -0.676,-0.675 -1.725,0.372 -1.049,1.05 5.93,5.927 11.858,11.858 17.785,17.786 C -0.37,1.724 0.678,0.677 0,0"
             style="fill:#662d91;fill-opacity:1;fill-rule:nonzero;stroke:none"
             id="path27286" />
        </g>
        <g
           id="g27288"
           transform="translate(678.498,194.5137)">
          <path
             d="m 0,0 c -5.731,5.732 -11.462,11.464 -17.193,17.193 -0.677,0.675 0.37,1.724 1.047,1.05 C -10.414,12.511 -4.683,6.776 1.049,1.048 1.725,0.37 0.675,-0.675 0,0"
             style="fill:#662d91;fill-opacity:1;fill-rule:nonzero;stroke:none"
             id="path27290" />
        </g>
        <g
           id="g27292"
           transform="translate(678.251,250.8906)">
          <path
             d="m 0,0 c -1.977,1.975 -3.952,3.951 -5.929,5.926 -0.675,0.678 0.372,1.723 1.048,1.05 C -2.903,4.998 -0.927,3.023 1.049,1.047 1.726,0.368 0.677,-0.677 0,0"
             style="fill:#662d91;fill-opacity:1;fill-rule:nonzero;stroke:none"
             id="path27294" />
        </g>
      </g>
    </g>
  </g>
</svg>
