<?xml version="1.0" encoding="UTF-8" standalone="no"?><!-- Generator: Adobe Illustrator 19.0.0, SVG Export Plug-In . SVG Version: 6.00 Build 0)  -->

<svg version="1.1" id="Layer_1" x="0px" y="0px" viewBox="0 0 315 315"
    style="enable-background:new 0 0 315 315;" xml:space="preserve"
    xmlns="http://www.w3.org/2000/svg"><defs
   id="defs10868"><linearGradient
     id="linearGradient14306"><stop
       style="stop-color:#ffffff;stop-opacity:1;"
       offset="0"
       id="stop14304" /></linearGradient></defs>
  <g id="g10833">
	<g id="g10831">
		<g id="g10829">
			<path id="path10823"
          d="M 157.5 0 C 93.319064 0 41.103516 52.214549 41.103516 116.39648 C 41.103516 138.54964 54.613339 169.1146 72.175781 199.52539 L 82.775391 187.92773 C 65.251061 157.008 56.103516 132.6478 56.103516 116.39648 C 56.103516 60.48554 101.59006 15 157.5 15 C 181.34348 15 203.27479 23.293432 220.60742 37.119141 L 230.74805 26.025391 C 210.72905 9.7684859 185.23857 -8.1889798e-15 157.5 0 z M 254.14062 51.59375 L 243.67383 63.044922 C 253.31159 78.554617 258.89648 96.831143 258.89648 116.39648 C 258.89648 139.46746 240.5377 178.82122 205.80273 230.20117 C 186.45675 258.81714 166.90899 283.84867 157.5 295.59766 C 148.09101 283.84867 128.54225 258.81714 109.19727 230.20117 C 106.52663 226.25074 103.98785 222.39615 101.51172 218.58984 L 91.076172 230.00781 C 119.28558 272.98891 149.37177 309.45607 151.73242 312.29492 C 153.15742 314.00792 155.271 315 157.5 315 C 159.728 315 161.84258 314.00892 163.26758 312.29492 C 167.78557 306.86193 273.89648 178.53442 273.89648 116.39648 C 273.89648 92.426254 266.61011 70.128985 254.14062 51.59375 z " />
      <path
          d="M195.657,213.956c-3.432-2.319-8.095-1.415-10.413,2.017c-10.121,14.982-21.459,30.684-33.699,46.67     c-2.518,3.289-1.894,7.996,1.395,10.514c1.36,1.042,2.963,1.546,4.554,1.546c2.254,0,4.484-1.013,5.96-2.941     c12.42-16.22,23.933-32.165,34.219-47.392C199.992,220.938,199.09,216.275,195.657,213.956z"
          id="path10825" />
      <path id="path10827"
          d="M 157.5 57.5 C 123.58903 57.5 96 85.089034 96 119 C 96 133.83003 101.27668 147.45087 110.05078 158.08398 L 120.33594 146.83008 C 114.50177 139.0595 111 129.44277 111 119 C 111 93.360026 131.86003 72.5 157.5 72.5 C 166.44991 72.5 174.78767 75.085279 181.88867 79.484375 L 192.16211 68.242188 C 182.28433 61.475236 170.35112 57.5 157.5 57.5 z M 214.22656 95.263672 L 202.62109 107.96289 C 203.48894 111.50795 204 115.19128 204 119 C 204 144.63997 183.14097 165.5 157.5 165.5 C 155.13596 165.5 152.83071 165.26589 150.56055 164.92383 L 138.95117 177.62695 C 144.80837 179.48447 151.03611 180.5 157.5 180.5 C 191.41097 180.5 219 152.91097 219 119 C 219 110.58975 217.29607 102.57178 214.22656 95.263672 z " />
		</g>
	</g>
</g>
  <rect style="display:none;fill:#000000;stroke:#ffffff;stroke-width:15;stroke-dasharray:none"
      id="rect12128" width="30.962303" height="293.18994" x="13.942027" y="12.909636"
      ry="10.378167" />
  <g id="rect12286" transform="matrix(0.708237,0.70597476,-0.67463851,0.73814828,0,0)"
      style="stroke:none;fill:#000000;fill-opacity:1;stroke-opacity:1"><path
     style="color:#000000;fill:#000000;-inkscape-stroke:none;stroke:none;fill-opacity:1;stroke-opacity:1"
     d="m 205.33398,-172.72852 c 5.27328,0 9.28516,4.00845 9.28516,9.31836 v 293.49805 c 0,5.30991 -4.01188,9.31836 -9.28516,9.31836 -5.27326,0 -9.28515,-4.00845 -9.28515,-9.31836 l 0,-293.49805 c 0,-5.3099 4.0119,-9.31836 9.28515,-9.31836 z"
     id="path14314" /></g></svg>
